<svg id="Layer_1" data-name="Layer 1" xmlns="http://www.w3.org/2000/svg" viewBox="0 0 49.76 49.76"><defs><style>.cls-1{fill:#1ea7aa;}</style></defs><title>chainblue</title><path class="cls-1" d="M39.26,21.63c-.68,3.17-4.47,2.67-9.7,7.93-5.07,5.1-4.62,8.69-7.69,9.35-.78-6.23-4.79-10.25-11-11,.66-3.08,4.25-2.62,9.35-7.69,5.26-5.23,4.76-9,7.93-9.71A11.27,11.27,0,0,0,39.26,21.63"/><path class="cls-1" d="M46.71,3A10.4,10.4,0,1,1,32,3a10.41,10.41,0,0,1,14.7,0M42.25,13.29a4.09,4.09,0,1,0-5.79,0,4.09,4.09,0,0,0,5.79,0"/><path class="cls-1" d="M17.75,32A10.4,10.4,0,1,1,3,32a10.39,10.39,0,0,1,14.71,0M13.29,42.25a4.09,4.09,0,1,0-5.79,0,4.09,4.09,0,0,0,5.79,0"/></svg>