<svg id="Layer_1" data-name="Layer 1" xmlns="http://www.w3.org/2000/svg" viewBox="0 0 130.65 61.75"><defs><style>.cls-1{fill:#1ea7aa;}</style></defs><title>logoblue</title><path class="cls-1" d="M11.74,30.45H21.85c7.29,0,10.89-5.23,10.89-10.46S29.14,9.62,21.85,9.62H8.57V60.87H0V.88H21.85c13,0,19.54,9.6,19.54,19.11,0,8.49-5.22,16.54-15.51,18.34L44.82,60.87H33.59L11.74,34.56Z"/><path class="cls-1" d="M121,22.35c-2.4-9.68-11.66-13.2-19.28-13.2C90,9.15,80.86,18.32,80.86,30.92s9.09,22,20.83,22c7.37,0,15.25-3.42,18.85-12.17H98.34V32.12h32.31c-.43,5.06-.85,8.4-1.63,10.37V42.4c-4.11,11.49-16.45,18.86-27.33,18.86-16.8,0-29.48-12.69-29.48-30.34S85.15.5,101.69.5c11.48,0,25.36,5.91,28.53,21.85Z"/><path class="cls-1" d="M65.83,18.41c1.76,2.72-1.28,5.05-1.26,12.47,0,7.19,2.89,9.4,1.18,12.05-5-3.86-10.63-3.86-15.59,0-1.7-2.64,1.16-4.85,1.18-12,0-7.42-3-9.75-1.26-12.47a11.28,11.28,0,0,0,15.75,0"/><path class="cls-1" d="M58,0A10.4,10.4,0,1,1,47.56,10.4,10.4,10.4,0,0,1,58,0m4.1,10.4A4.1,4.1,0,1,0,58,14.49a4.1,4.1,0,0,0,4.1-4.09"/><path class="cls-1" d="M58,41a10.4,10.4,0,1,1-10.39,10.4A10.4,10.4,0,0,1,58,41m4.1,10.4A4.1,4.1,0,1,0,58,55.45a4.09,4.09,0,0,0,4.1-4.09"/></svg>