<svg id="Layer_1" data-name="Layer 1" xmlns="http://www.w3.org/2000/svg" xmlns:xlink="http://www.w3.org/1999/xlink" viewBox="0 0 251 96"><defs><style>.cls-1{fill:url(#linear-gradient);}.cls-2{fill:#fff;}</style><linearGradient id="linear-gradient" x1="10.59" y1="-18.34" x2="240.41" y2="114.34" gradientUnits="userSpaceOnUse"><stop offset="0" stop-color="#1ea7aa"/><stop offset="0.05" stop-color="#23a8a7"/><stop offset="0.69" stop-color="#64ba7a"/><stop offset="1" stop-color="#7dc169"/></linearGradient></defs><title>logo</title><rect class="cls-1" width="251" height="96"/><path class="cls-2" d="M71.91,47.57H82c7.28,0,10.88-5.23,10.88-10.45S89.31,26.75,82,26.75H68.74V78H60.17V18H82c13,0,19.54,9.59,19.54,19.11,0,8.48-5.23,16.54-15.52,18.34L105,78H93.77L71.91,51.69Z"/><path class="cls-2" d="M181.14,39.47c-2.4-9.68-11.65-13.19-19.28-13.19C150.12,26.28,141,35.45,141,48s9.09,22,20.83,22c7.37,0,15.25-3.43,18.85-12.17H158.52V49.24h32.31c-.43,5.06-.86,8.4-1.63,10.37v-.08C185.08,71,172.74,78.38,161.86,78.38c-16.8,0-29.48-12.68-29.48-30.34s12.94-30.42,29.48-30.42c11.48,0,25.37,5.91,28.54,21.85Z"/><path class="cls-2" d="M126,35.53c1.76,2.73-1.28,5-1.26,12.47,0,7.19,2.89,9.41,1.18,12-5-3.86-10.63-3.86-15.58,0-1.71-2.65,1.15-4.86,1.17-12,0-7.42-3-9.74-1.26-12.47a11.26,11.26,0,0,0,15.75,0"/><path class="cls-2" d="M118.13,17.12a10.4,10.4,0,1,1-10.4,10.4,10.4,10.4,0,0,1,10.4-10.4m4.09,10.4a4.1,4.1,0,1,0-4.09,4.1,4.1,4.1,0,0,0,4.09-4.1"/><path class="cls-2" d="M118.13,58.08a10.4,10.4,0,1,1-10.4,10.4,10.4,10.4,0,0,1,10.4-10.4m4.09,10.4a4.1,4.1,0,1,0-4.09,4.1,4.1,4.1,0,0,0,4.09-4.1"/></svg>